<svg width="61" height="62" viewBox="0 0 61 62" fill="none" xmlns="http://www.w3.org/2000/svg">
<path d="M29.4438 4.3328C29.4438 4.38859 29.6945 4.58353 30.0003 4.7502C30.446 5.00093 30.5576 4.97339 30.5576 4.61106C30.5576 4.38859 30.3069 4.19366 30.0003 4.19366C29.6945 4.19366 29.4438 4.24946 29.4438 4.3328Z" fill="white"/>
<path d="M55.0014 30.3958C55.0014 44.4687 43.8083 55.877 30.0007 55.877C16.1931 55.877 5 44.4687 5 30.3958C5 16.323 16.1931 4.91469 30.0007 4.91469C43.8083 4.91469 55.0014 16.323 55.0014 30.3958Z" stroke="white" stroke-width="1.33333" stroke-miterlimit="10"/>
<path d="M39.3282 49.4551C39.7181 49.9283 39.4674 50.4573 38.9108 50.2348C38.4652 50.0674 38.326 49.0377 38.7434 49.0377C38.8826 49.0377 39.1333 49.2326 39.3282 49.4551ZM36.1542 46.4209C36.0433 46.7268 36.1825 46.7825 36.6832 46.6434C37.5463 46.4209 37.6021 46.9492 36.7673 47.3949C36.2658 47.6732 36.2383 47.7572 36.5999 47.9514C36.8782 48.0913 36.9897 48.4529 36.934 48.8145C36.8782 49.2044 36.9897 49.0652 37.268 48.4804C37.6854 47.5623 37.7412 47.534 38.1035 48.0355C38.3536 48.3971 38.3818 48.6754 38.2144 48.8985C38.0478 49.0935 37.992 49.4275 38.0753 49.65C38.2702 50.1232 37.6021 50.4848 36.9622 50.2624C36.739 50.179 36.2941 49.6776 35.96 49.1486C35.6535 48.6196 35.2361 48.2022 35.0129 48.2022C34.5679 48.2022 34.2339 46.5601 34.5955 46.1144C34.9853 45.6412 36.3492 45.9195 36.1542 46.4209ZM38.1311 45.5854C38.0477 45.6688 37.797 45.697 37.6021 45.613C37.3796 45.5296 37.4629 45.4463 37.7695 45.4463C38.0753 45.4187 38.2427 45.5021 38.1311 45.5854ZM34.0665 44.2216C34.5121 44.4999 34.8737 44.8057 34.8737 44.9448C34.8737 45.1398 33.844 44.5557 32.9534 43.8317C32.5635 43.5535 33.3983 43.8317 34.0665 44.2216ZM16.695 35.8417C16.5001 36.0649 15.108 34.2829 15.108 33.8097C15.108 33.559 15.4979 33.8931 15.9711 34.5337C16.4443 35.2018 16.7508 35.7859 16.695 35.8417ZM17.5581 32.4177C17.6139 32.8351 17.5305 33.1691 17.3914 33.1691C17.0573 33.1691 16.4725 31.8887 16.7232 31.6662C17.0573 31.3039 17.4747 31.6937 17.5581 32.4177ZM36.6281 31.5821C37.7695 31.5546 37.9644 31.8611 37.1013 32.3343C35.6535 33.1133 37.3514 33.7539 38.9108 33.0025C40.3029 32.3619 40.637 32.7242 40.163 34.4221C39.6898 36.1482 38.4094 38.0693 37.3238 38.7374C35.5977 39.7947 34.9578 39.4055 34.4288 37.0388C33.8998 34.5612 33.9273 33.0025 34.4839 32.7793C34.8179 32.6401 34.8737 32.4177 34.7629 31.8887C34.5955 31.2481 34.6237 31.193 35.0687 31.3879C35.347 31.4988 36.0433 31.6104 36.6281 31.5821ZM16.2218 29.5502C16.2218 29.8567 16.1102 30.1067 15.9435 30.1067C15.8044 30.1067 15.6653 30.4966 15.6653 30.9698C15.6653 31.722 15.6095 31.8053 15.2478 31.4988C14.7188 31.0539 14.7188 30.3857 15.2754 29.606C15.8044 28.8545 16.2218 28.8263 16.2218 29.5502ZM38.6043 28.9654C38.6876 29.1045 38.5767 29.3553 38.3536 29.5502C38.0753 29.8009 37.9362 29.8009 37.9362 29.5777C37.9362 29.4111 37.6854 29.2719 37.4072 29.2719C37.1013 29.2719 36.7673 29.1328 36.6832 28.9937C36.5723 28.8263 36.9064 28.7154 37.4905 28.7154C38.0195 28.7154 38.521 28.8263 38.6043 28.9654ZM14.8297 27.3509C14.8297 27.49 14.7188 27.6016 14.5515 27.6016C14.4123 27.6016 14.2732 27.4067 14.2732 27.1559C14.2732 26.9335 14.4123 26.8219 14.5515 26.9052C14.7188 26.9893 14.8297 27.1842 14.8297 27.3509ZM16.4443 26.0704C16.3609 27.7965 15.9435 27.6574 15.9435 25.903C15.9435 25.0682 16.0551 24.5667 16.2218 24.6783C16.3609 24.7617 16.4725 25.4023 16.4443 26.0704ZM19.3958 21.3652C19.4791 21.5884 19.4509 21.6993 19.2842 21.6159C19.1168 21.5326 19.0059 21.3377 19.0059 21.171C19.0059 20.7811 19.2009 20.8644 19.3958 21.3652ZM17.2798 21.3934C17.224 21.6717 16.9733 21.9224 16.695 21.9782C16.25 22.0616 16.2218 22.0058 16.5001 21.505C16.8624 20.8086 17.4189 20.7253 17.2798 21.3934ZM17.6139 19.0825C17.6139 19.1383 17.4189 19.2774 17.1682 19.3608C16.9457 19.4448 16.8341 19.4166 16.9182 19.2499C17.0849 18.9716 17.6139 18.86 17.6139 19.0825ZM31.2548 18.8876C31.2548 19.0825 31.1432 19.2499 30.9765 19.2499C30.8374 19.2499 30.6983 18.9158 30.6983 18.4702C30.6983 17.8854 30.7541 17.802 30.9765 18.1361C31.1157 18.3586 31.2548 18.7209 31.2548 18.8876ZM29.3062 18.4426C29.3062 18.7484 29.1946 18.9158 29.0279 18.8325C28.8888 18.7484 28.7497 18.4144 28.7497 18.1086C28.7497 17.802 28.8888 17.6354 29.0279 17.7187C29.1946 17.802 29.3062 18.1361 29.3062 18.4426ZM23.5995 17.8578C23.5155 17.997 23.2372 18.1361 23.0147 18.1361C22.7915 18.1361 22.6807 17.997 22.764 17.8578C22.8473 17.6904 23.1256 17.5796 23.3488 17.5796C23.5713 17.5796 23.6829 17.6904 23.5995 17.8578ZM27.0793 17.1897C27.0793 17.4122 27.246 17.5796 27.4685 17.5796C28.2207 17.5796 28.2765 18.6651 27.5801 19.6948L26.9402 20.642L26.6337 19.6115C26.4663 18.9716 26.2721 18.7209 26.1322 18.9158C25.938 19.2216 24.8517 19.389 24.8517 19.1108C24.8517 19.055 25.13 18.4426 25.4365 17.7745C25.9097 16.8281 26.1605 16.5774 26.5503 16.6607C26.8561 16.744 27.0793 16.9948 27.0793 17.1897ZM16.7783 16.744C17.0849 16.939 16.8899 17.0223 16.0269 17.0223C15.3587 17.0223 14.8297 16.8832 14.8297 16.744C14.8297 16.3824 16.2218 16.3824 16.7783 16.744ZM26.2996 15.881C25.7981 16.494 25.2699 17.3013 25.1025 17.6904C24.7684 18.4144 24.2952 18.6651 24.2952 18.1361C24.2952 17.6629 25.7148 15.5194 26.3554 15.0179C27.2743 14.2947 27.246 14.6838 26.2996 15.881ZM27.1344 12.6244C26.6612 13.0976 26.717 13.32 27.4409 13.515C27.9699 13.6816 27.8866 13.7657 26.717 14.2106C25.9931 14.5172 24.9633 15.1295 24.4068 15.631C23.8495 16.1042 23.3488 16.4382 23.2655 16.3542C22.9031 15.9926 26.4387 12.2903 27.1627 12.2903C27.3576 12.2903 27.3576 12.4012 27.1344 12.6244ZM18.7277 13.1534C18.7277 13.7932 17.753 15.7976 17.3073 16.0484C17.1407 16.16 16.8624 16.1042 16.695 15.9092C16.4443 15.631 16.4443 15.5194 16.7232 15.436C17.0015 15.3244 16.9457 15.1853 16.5841 14.907C16.1102 14.5447 16.1102 14.5447 16.6392 14.5172C17.1965 14.4896 17.1965 14.4896 16.6675 14.0998C16.166 13.7099 16.166 13.6816 16.8066 13.4316C17.1965 13.2925 17.6697 12.986 17.8646 12.7352C18.3095 12.2062 18.7277 12.4012 18.7277 13.1534ZM19.6741 11.1207C19.7299 11.2323 19.7016 11.5106 19.5907 11.7055C19.3958 12.0113 19.2284 12.0113 18.6994 11.7055C18.0595 11.3714 18.0595 11.3714 18.5885 11.149C19.34 10.87 19.5067 10.87 19.6741 11.1207ZM34.1498 7.14016C33.6491 7.5293 33.6491 7.52929 34.4005 7.55756C34.8462 7.55756 35.1245 7.66843 35.0129 7.83583C34.9295 8.0025 35.0411 8.19743 35.2636 8.28149C35.8484 8.50396 35.8202 8.94962 35.2361 8.97716C34.9578 8.97716 35.4585 9.33877 36.3492 9.78443C37.7137 10.4526 37.8804 10.5917 37.4072 10.7591C36.6557 10.9816 36.9064 11.4548 37.7695 11.4548C38.6325 11.4548 38.855 11.7613 38.2702 12.1787C37.8246 12.5128 37.8528 12.5403 38.3818 12.5686C39.05 12.5686 40.442 13.5708 40.442 14.0157C40.442 14.1556 40.7478 14.5447 41.1377 14.8512C42.1682 15.6585 41.9732 15.9926 40.8036 15.352C40.2471 15.0462 39.7181 14.8512 39.6623 14.9346C39.5789 14.9904 39.8848 15.5194 40.3029 16.0484C41.0819 17.1064 41.0819 17.7187 40.3029 16.9114C39.7181 16.3266 39.2449 16.6049 39.6065 17.3013C40.108 18.2194 39.913 18.2752 38.2985 17.6629C38.1035 17.5796 37.9362 17.7187 37.9362 17.9412C37.9362 18.526 37.3514 18.6926 35.2078 18.7209C33.2317 18.7209 33.4817 19.1941 35.5143 19.2216C36.739 19.2499 36.8782 19.6949 35.7093 19.9456C34.6788 20.1688 34.6788 20.3912 35.7093 21.5601C36.4607 22.4232 36.4883 22.5623 36.0991 22.8964C35.8484 23.0913 35.7093 23.5094 35.7926 23.8986C35.8484 24.2609 35.8202 24.5392 35.681 24.5392C35.5419 24.5392 35.3194 24.8175 35.1245 25.124C34.8738 25.6247 34.9295 25.8197 35.4028 26.3211C35.8759 26.7943 36.0433 26.8219 36.2383 26.516C36.405 26.2653 36.5441 26.2371 36.6557 26.4603C36.934 26.9052 37.3796 26.8501 37.2122 26.4045C37.1013 26.0979 37.3238 26.0704 38.3536 26.3211C40.692 26.8777 39.7181 27.6016 36.6557 27.6016C35.152 27.6016 34.7629 27.7407 33.2317 28.7154L31.5331 29.8285L31.728 32.1111C31.8671 33.3923 31.9512 35.1735 31.9512 36.0924C31.9512 37.5953 31.8954 37.7903 31.2273 38.1526C30.5867 38.5142 30.3084 38.5142 29.3337 38.1801C28.4156 37.9019 28.1366 37.8743 27.775 38.1801C27.1344 38.7091 27.775 39.2939 28.9446 39.2939C29.4729 39.2939 30.141 39.4331 30.42 39.5722C30.9765 39.8787 31.6722 41.8831 31.3939 42.3563C31.3106 42.523 29.8627 42.6346 28.1649 42.6346C25.4641 42.6346 25.13 42.6904 25.13 43.1078C25.13 43.5535 25.4641 43.6085 27.775 43.6368C30.949 43.6926 31.8113 43.8875 31.8113 44.4999C31.8113 44.8897 31.5331 44.9173 29.8627 44.7781L27.9141 44.6108L28.6656 45.5296C29.2787 46.3369 29.6127 46.476 30.9207 46.6152C31.7563 46.6992 32.5635 46.8941 32.6744 47.005C32.8135 47.1442 32.7027 47.6732 32.4244 48.2022L31.9512 49.1768H28.8605L25.7431 49.1486L24.1278 48.0913C21.9843 46.6434 19.8965 44.6665 19.2842 43.4694C19.0059 42.9129 18.6994 41.8549 18.5885 41.1034C18.5045 40.3237 18.2262 38.7649 18.0037 37.5953C17.6697 35.925 17.6697 35.2293 17.9204 34.2547C18.0871 33.5865 18.1987 32.7242 18.1987 32.3343C17.9204 27.7407 18.4769 25.3465 20.2864 23.537L21.4277 22.3674L20.7038 21.6159L19.9799 20.8644L20.6763 21.0036C21.0661 21.0869 22.4857 21.3101 23.8778 21.4768C25.2416 21.6442 26.4387 21.8391 26.4945 21.9224C26.5779 21.9782 26.4663 22.2007 26.2996 22.3674C25.6315 23.0362 26.0213 23.1196 28.9163 23.0362C31.3939 22.9804 31.9512 22.8964 32.257 22.479C32.4519 22.2007 32.7585 22.0616 32.9534 22.1732C33.6491 22.6181 33.0643 19.6398 32.2853 18.6926C31.4222 17.6629 31.3106 17.0223 32.0345 17.0223C32.3403 17.0223 32.9809 16.41 33.6215 15.4636C34.7346 13.849 34.7071 13.4592 33.3425 13.3758C32.8693 13.3476 32.8693 13.32 33.2875 13.2084C33.8998 13.0418 33.6215 12.5686 32.8976 12.5686C32.4244 12.5686 32.3686 12.3736 32.3686 10.954C32.3403 9.61776 32.3128 9.45037 32.0345 9.92357C31.7005 10.4526 31.7005 10.4526 31.5055 9.78443C31.2548 8.86557 31.199 7.14016 31.4497 6.91696C31.5331 6.80609 32.3128 6.72203 33.1759 6.72203C34.5679 6.72203 34.6513 6.75029 34.1498 7.14016ZM16.908 9.24022C18.495 7.65321 16.2218 10.0627 16.6117 10.0627C16.695 10.0627 16.5001 10.6475 16.1385 11.3714C15.7486 12.1229 15.3029 13.2084 15.108 13.8215C14.9138 14.4338 14.5797 15.1578 14.3565 15.4078C13.6608 16.1875 13.1876 17.9136 13.1594 19.6673C13.1594 20.5579 12.9369 21.8666 12.6862 22.5348C12.4079 23.2587 12.3246 23.8153 12.4912 23.9268C12.9927 24.2885 13.6608 26.9335 13.3826 27.4625C13.1876 27.7965 13.2434 28.6871 13.5775 30.3575C14.2732 33.8097 14.9138 35.3127 16.166 36.3989C16.8624 36.983 17.3356 37.6511 17.4465 38.2359C17.6139 39.0715 17.4747 39.2939 15.4421 41.3817C14.2456 42.6063 12.742 44.2491 12.1014 45.0564L10.9325 46.476L12.7978 48.3413C15.0247 50.5131 17.6139 52.2943 20.4531 53.603C23.0147 54.8002 25.4923 55.5516 25.2416 55.0784C25.13 54.8835 24.0727 53.1856 22.9031 51.2646C20.6205 47.5623 18.4487 43.6926 18.4487 43.3585C18.4487 43.2469 18.9226 43.7484 19.5349 44.4999C21.6227 47.1442 25.0191 49.7058 27.9699 50.8747C30.7541 51.9602 30.8374 52.1834 29.6961 54.7726C29.3062 55.6357 29.1671 56.248 29.362 56.0806C29.5569 55.914 30.5309 55.6908 31.5331 55.6074C34.0947 55.3292 36.9622 54.661 38.9942 53.8538C40.7203 53.1574 40.7478 53.1298 40.108 52.7124C39.7456 52.4892 39.1891 52.0443 38.855 51.7378L38.2427 51.1812L39.1333 50.7356C39.9964 50.3182 40.0239 50.2348 39.9964 48.6754C39.9688 47.6174 39.8014 46.8941 39.4949 46.5601C38.9108 45.9195 38.9108 45.8919 39.9964 44.4716C40.887 43.3027 42.1124 39.6838 42.1124 38.2359C42.1124 37.9294 42.7247 36.9555 43.5044 36.0649C46.1487 33.0583 47.4016 27.5733 45.703 26.3762C45.2298 26.0421 45.2023 25.9588 45.5922 25.653C46.7052 24.7341 46.9842 21.0036 46.3436 15.881C46.1487 14.1556 46.0096 13.8766 44.5342 12.1512C43.6711 11.1207 42.9472 10.1743 42.9472 10.0352C42.9472 9.08876 42.0182 8.17931 43.6885 10.6018C44.2726 11.4366 44.54 12.4171 44.5958 12.4171C44.7907 12.4171 44.2646 11.0577 43.2341 9.69385C35.9716 4.70096 37.992 5.60896 30.5309 5.60896C28.2765 5.60896 28.1924 5.63649 28.4707 6.13795C28.9163 7.00029 28.8047 7.83583 28.0533 8.69889C27.5525 9.33877 27.4134 9.72863 27.5525 10.341C27.6634 10.9816 27.6083 11.1765 27.2743 11.1765C27.0511 11.1765 26.6061 11.5106 26.3271 11.9004C26.0489 12.2903 25.1858 12.9584 24.4343 13.3476C23.4046 13.9048 22.8473 14.4614 22.2908 15.4918C21.9009 16.2433 21.3444 16.9948 21.1212 17.1897C20.5929 17.5796 20.7871 18.331 21.4553 18.4702C21.8176 18.5535 21.7618 18.6926 21.1212 19.1108C20.0081 19.8347 19.4509 19.4166 19.4233 17.8578C19.4233 16.939 19.5625 16.5491 20.1473 16.0759C21.0379 15.2969 21.3161 14.6288 20.927 13.9324C20.7321 13.515 20.7321 13.2642 20.9821 12.9584C21.4002 12.457 20.927 12.4294 20.0357 12.8744C19.5349 13.1251 19.4791 13.1251 19.7574 12.8468C19.9523 12.6519 20.9545 12.3178 21.9843 12.1512C23.0147 11.9562 23.5995 11.7888 23.2655 11.7613C22.4575 11.733 22.4299 11.1765 23.2097 11.1765C23.6271 11.1765 23.7387 11.0374 23.6271 10.7591C23.5437 10.5084 23.6271 10.341 23.9053 10.341C24.1561 10.341 24.2394 10.2018 24.1278 10.0352C23.9336 9.72863 21.8176 9.81269 19.6458 10.2301C18.3378 10.4808 18.5045 9.95182 19.9248 9.36703C21.0379 8.89383 21.0661 8.86557 20.398 8.67063C19.7299 8.50396 19.7574 8.47643 20.8154 8.14236C21.4277 7.91916 22.0401 7.66843 22.2075 7.5293C22.3466 7.39016 22.8198 7.27929 23.2372 7.27929C23.6546 7.27929 24.0169 7.14016 24.0169 7.0003C24.0169 6.83363 24.2952 6.72203 24.6568 6.69449H25.2699L24.6293 6.41622C23.7104 6.05389 20.0357 7.33437 17.3073 8.94963" fill="white"/>
<path d="M25.3252 29.4388C25.2418 29.5221 24.9911 29.5504 24.7962 29.4663C24.5737 29.383 24.657 29.2996 24.9636 29.2996C25.2694 29.2721 25.4368 29.3554 25.3252 29.4388ZM22.736 27.0727C22.2628 27.2119 21.6504 27.5735 21.3439 27.9076L20.8149 28.5199L22.82 28.3532C24.2672 28.2416 24.9078 28.2974 25.1027 28.5482C25.3252 28.8264 25.0744 28.9931 23.9331 29.2438C21.5113 29.7728 20.0634 31.1924 22.291 30.8308C23.0142 30.7192 23.5432 30.8026 23.9614 31.1091C24.7962 31.6939 27.0231 31.5548 27.3854 30.8866C27.5245 30.6076 27.8586 30.3852 28.1093 30.3852C28.4709 30.3852 28.4709 30.3018 28.1926 29.9678C27.8028 29.4946 27.8028 29.4946 28.5267 29.1047C28.9441 28.8822 28.8883 28.7706 28.1093 28.409C26.773 27.7409 24.1838 26.7662 23.8773 26.7938C23.7106 26.7938 23.2092 26.9329 22.736 27.0727Z" fill="white"/>
<path d="M24.8518 32.5845C24.8518 32.7237 25.1026 32.7795 25.4084 32.6961C25.7149 32.6121 25.9656 32.5012 25.9656 32.4454C25.9656 32.3896 25.7149 32.3338 25.4084 32.3338C25.1026 32.3338 24.8518 32.4454 24.8518 32.5845Z" fill="white"/>
<path d="M29.863 41.3539C29.863 41.6046 30.0021 41.7996 30.1412 41.7996C30.3086 41.7996 30.4195 41.688 30.4195 41.5488C30.4195 41.3814 30.3086 41.1872 30.1412 41.1032C30.0021 41.0198 29.863 41.1314 29.863 41.3539Z" fill="white"/>
<path d="M29.7224 56.6913C29.7224 57.1087 29.834 57.3595 30.0007 57.2479C30.1681 57.1645 30.2789 56.9138 30.2789 56.6913C30.2789 56.4689 30.1681 56.2181 30.0007 56.1348C29.834 56.0232 29.7224 56.2739 29.7224 56.6913Z" fill="white"/>
</svg>
